<svg xmlns="http://www.w3.org/2000/svg" viewBox="0.1 351.9 595 138.2"><g fill="#C41230"><path d="M563.6 445.7c3.2-.3 5.8-.7 7.4-.7 2.4 0 5.1.5 6.3.7-.7-6.8-1-17.4-1-24.4 0-7.4.5-9.1 1.4-10.8 1.4-2.9 4.7-5.9 9.7-5.9.5 0 4.6 0 6.4 1.5l.8-.5c-.3-1.4-.5-2.9-.5-4.7 0-1.5.2-6.3 1-7.8-.8-.2-1.7-.3-2.9-.3-8.8 0-13 7.3-16.1 12 0-5.4 0-5.9.7-11.5-1.7.5-3.6.7-6.3.7-2.9 0-4.7-.2-7.3-.7.5 9.7.8 12.4.8 24.2 0 4.2 0 12.7-.2 17.4l-.2 10.8zM534.7 429.9c0 5.8-3.9 10.3-9.7 10.3-4.4 0-7.3-3.6-7.3-9.3 0-7.8 4.4-9 16.9-12.4v11.4zm-11.7-13c-10.2 2.7-17.6 4.7-17.6 16.8 0 4.2 2.4 13.4 15.1 13.4 5.8 0 11.2-2.9 14.6-7.4 1.4 3.6 2.7 6.6 9.1 6.6 3 0 6.4-1.4 9.3-2.4-.2-.7-.5-1.4-.5-2 0-.7.2-1.4.5-2-1 .5-2 .8-3 .8-3.7 0-3.9-2.5-3.9-13.4 0-3.6.3-14.6.3-18.6 0-11-8.1-16.4-19.8-16.4-5.8 0-9.1 1-17.4 6.1.2 1 .2 2 .2 2.9 0 1.9-.2 3.2-.5 5.4.5-.2 1.2-.2 1.7-.2s1 .2 1.7.2c.7-2.5 3.6-7.8 11.9-7.8 5.9 0 10.5 3.2 10.5 11.5 0 .8-.2 1.5-.5 2.2-.5 1-1.4 1.4-7.8 3l-3.9 1.3zM486.6 374c-2 1.7-6.3 4.7-12.4 7.6.2 5.1.2 9.3.2 12.4h-4.7c-1.4 0-2.9-.3-3.7-.5.2 1.4.3 2.4.3 3.6 0 1-.2 1.9-.3 2.4 1.4-.2 3-.3 5.1-.3h3.2c0 8.8-.7 27.8-.7 32.7 0 4.4.8 9.3 4.6 12.4 2.5 2 6.8 2.9 9.8 2.9 3.6 0 9.1-1.5 12.4-3.2-.2-.8-.5-1.4-.5-2.5 0-.8.3-2 .5-2.5-2.2 1.5-4.2 2.4-6.6 2.4-7.3 0-7.8-4.7-7.8-20.8 0-4.6.3-16.3.3-21 5.9 0 7.3 0 11.9.5-.2-1-.3-2-.3-3.2 0-1 .2-1.7.3-2.7l-4.1.3c-2 .2-2.5.2-7.4.2.3-16.4.3-18.3.7-19.8l-.8-.9zM442.2 364.7c.7 8.5 1.4 17.1 1.4 37.4 0 2.5.2 35-1 43.5 3.9-.5 5.8-.7 7.4-.7 2.4 0 4.4.5 6.6.7-1.4-12.4-1-38.6-1-40.6 0-11.2 0-28.4 1-40.1-2.2.3-3.4.7-6.9.7-3.4-.2-4.8-.4-7.5-.9M414 429.9c0 5.8-3.9 10.3-9.7 10.3-4.4 0-7.3-3.6-7.3-9.3 0-7.8 4.4-9 16.9-12.4v11.4zm-11.7-13c-10.2 2.7-17.6 4.7-17.6 16.8 0 4.2 2.4 13.4 15.1 13.4 5.8 0 11.2-2.9 14.6-7.4 1.4 3.6 2.5 6.6 9 6.6 3 0 6.4-1.4 9.3-2.4-.2-.7-.5-1.4-.5-2 0-.7.2-1.4.5-2-1 .5-2 .8-3 .8-3.7 0-3.9-2.5-3.9-13.4 0-3.6.3-14.6.3-18.6 0-11-8.1-16.4-19.8-16.4-5.8 0-9.1 1-17.3 6.1.2 1 .2 2 .2 2.9 0 1.9-.2 3.2-.5 5.4.5-.2 1.2-.2 1.7-.2s1 .2 1.7.2c.7-2.5 3.6-7.8 11.9-7.8 5.9 0 10.7 3.2 10.7 11.5 0 .8-.2 1.5-.5 2.2-.5 1-1.4 1.4-7.8 3l-4.1 1.3zM347.9 445.7c3.2-.3 5.8-.7 7.4-.7 2.4 0 5.1.5 6.3.7-.7-6.8-1-17.4-1-24.4 0-7.4.5-9.1 1.4-10.8 1.4-2.9 4.7-5.9 9.7-5.9.5 0 4.6 0 6.4 1.5l.8-.5c-.3-1.4-.5-2.9-.5-4.7 0-1.5.2-6.3 1-7.8-.8-.2-1.7-.3-2.9-.3-8.8 0-13 7.3-16.1 12 0-5.4 0-5.9.7-11.5-1.7.5-3.6.7-6.3.7-2.9 0-4.7-.2-7.3-.7.5 9.7.7 12.4.7 24.2 0 4.2 0 12.7-.2 17.4l-.1 10.8zM308.3 441.9c-12.4 0-13-14.7-13-21.5 0-8.8 1.9-21.3 13.2-21.3 12.2 0 13 13 13 20.3.2 9.2-2 22.5-13.2 22.5m26.9-23.7c0-18.3-12.2-25.9-22.9-25.9-7.3 0-12.5 3.6-16.8 9.3.2-22.3.2-24.7.8-36.9-1.9.3-3.7.7-6.8.7-3 0-5.1-.2-7.3-.7 1.2 20.1 1.4 27.3 1.4 41.5 0 22-.5 28.4-1 39.4h3.7c3.2-3.7 3.6-4.1 6.9-6.3 4.7 6.3 10.5 7.6 17.1 7.6 16 .1 24.9-13.9 24.9-28.7M261.4 383.2c3.9 0 7.6-3.4 7.6-7.4 0-4.1-3.6-7.6-7.6-7.6-4.1 0-7.4 3.6-7.4 7.6-.2 4 3.5 7.4 7.4 7.4M254.6 445.7c2.5-.3 4.9-.7 7.4-.7 2.4 0 4.2.3 6.3.7 0-1.4-.5-7.4-.5-9-.2-3.9-.3-15.1-.3-19.8 0-3.9.5-14.1.7-18.6l.2-4.9c-1.7.3-3.6.7-6.8.7-3.2 0-5.1-.3-7.3-.7.8 7.6 1 19.3 1 27.1 0 4.1-.2 8-.3 13.5l-.4 11.7zM168.1 409.4c0 24.5 17.6 37.8 38.9 37.8 10.5 0 22.3-2.7 31.7-7.6-.2-3-.3-5.8-.3-10 0-2.9.2-14.4.8-18.3-2.4.5-3.9.8-6.9.8-2.9 0-5.4-.5-7.8-.8.3 5.4.7 10.7.7 16.1 0 1.4 0 2.4-.3 10-4.4 2.9-10.3 3.9-15.6 3.9-10 0-15.7-4.7-19.8-10-5.1-6.6-6.6-14.6-6.6-22.9 0-20.7 9.7-32.7 27.9-32.7 15.7 0 19.5 7.6 20.8 10.3h1l3.2-10.7c-8.8-3.9-16.6-5.4-25.6-5.4-28.7-.1-42.1 17.5-42.1 39.5"/></g><g fill="#C41230"><path d="M177.8 489.7h-2v-28.3h2v28.3zM188.3 461.6c.2 0 .2.2.3.3l18.3 24.5v-24.9h1.9v28.3h-1c-.3 0-.5-.2-.7-.3L188.6 465v24.9h-1.7v-28.4h1c.2-.1.2.1.4.1zM235.3 461.4v1.7h-10v26.6h-1.9v-26.4h-10v-1.7h21.8v-.2zM257 461.4v1.7h-14.9v11.3h12.4v1.7h-12.4V488H257v1.7h-16.9v-28.3H257zM266.3 477v12.7h-2v-28.3h7.3c3.2 0 5.8.7 7.3 1.9 1.7 1.2 2.4 3 2.4 5.6 0 1-.2 2-.5 2.9-.3.8-.8 1.7-1.5 2.4s-1.5 1.2-2.5 1.7-2 .7-3.4.8c.3.2.7.5.8.8l9.7 12.2h-1.7c-.2 0-.3 0-.5-.2-.2 0-.3-.2-.5-.3l-9-11.5c-.2-.3-.5-.5-.7-.7-.3-.2-.7-.2-1.2-.2h-3.9v.2zm0-1.5h4.9c1.2 0 2.4-.2 3.4-.5s1.9-.7 2.5-1.4c.7-.5 1.2-1.2 1.5-2 .3-.8.5-1.7.5-2.7 0-2-.7-3.6-2-4.4-1.4-1-3.2-1.5-5.8-1.5h-5.2v12.5h.2zM290.2 461.6c.2 0 .2.2.3.3l18.3 24.5v-24.9h1.9v28.3h-1c-.3 0-.5-.2-.7-.3L290.5 465v24.9h-1.9v-28.4h1c.3-.1.4.1.6.1zM340.1 489.7h-1.5c-.2 0-.3 0-.5-.2l-.3-.3-3.4-8.1h-13.9l-3.4 8.1c0 .2-.2.3-.3.3-.2.2-.3.2-.5.2h-1.4l11.5-28.3h2l11.7 28.3zm-18.9-10.2h12.7l-5.8-14.2c-.2-.2-.2-.5-.3-.8-.2-.3-.2-.5-.3-.8-.2.3-.2.7-.3.8-.2.3-.2.5-.3.8l-5.7 14.2zM360.6 461.4v1.7h-10v26.6h-2v-26.4h-10v-1.7h22v-.2zM368.1 489.7h-2v-28.3h2v28.3zM402.4 475.6c0 2.2-.3 4.2-1 5.9-.7 1.7-1.5 3.2-2.7 4.6-1.2 1.2-2.5 2.2-4.2 2.9-1.7.7-3.6 1-5.4 1-2 0-3.7-.3-5.4-1-1.7-.7-3-1.7-4.2-2.9-1.2-1.2-2-2.7-2.7-4.6-.7-1.7-1-3.7-1-5.9s.3-4.1 1-5.9c.7-1.7 1.5-3.2 2.7-4.6 1.2-1.2 2.5-2.2 4.2-2.9 1.7-.7 3.4-1 5.4-1 2 0 3.9.3 5.4 1 1.7.7 3 1.7 4.2 2.9 1.2 1.2 2 2.7 2.7 4.6.7 1.7 1 3.7 1 5.9zm-2.2 0c0-2-.3-3.7-.8-5.2s-1.4-2.9-2.4-4.1c-1-1-2.2-1.9-3.6-2.5-1.4-.5-2.9-.8-4.6-.8s-3.2.3-4.6.8c-1.4.5-2.5 1.4-3.6 2.5-1 1-1.9 2.4-2.4 4.1-.5 1.5-.8 3.4-.8 5.2 0 2 .3 3.7.8 5.2s1.4 2.9 2.4 4.1c1 1 2.2 1.9 3.6 2.5 1.4.5 2.9.8 4.6.8s3.2-.3 4.6-.8 2.5-1.4 3.6-2.5c1-1 1.7-2.4 2.4-4.1.7-1.4.8-3.1.8-5.2zM410.4 461.6c.2 0 .2.2.3.3l18.3 24.5v-24.9h1.9v28.3h-1c-.3 0-.5-.2-.7-.3L410.7 465v24.9h-1.9v-28.4h1c.3-.1.4.1.6.1zM460.3 489.7h-1.5c-.2 0-.3 0-.5-.2l-.3-.3-3.4-8.1h-13.9l-3.4 8.1c0 .2-.2.3-.3.3-.2.2-.3.2-.5.2h-1.4l11.5-28.3h2l11.7 28.3zm-18.9-10.2h12.7l-5.8-14.2c-.2-.2-.2-.5-.3-.8-.2-.3-.2-.5-.3-.8-.2.3-.2.7-.3.8-.2.3-.2.5-.3.8l-5.7 14.2zM466.6 488H480v1.7h-15.4v-28.3h2V488zM492.5 489.7v-28.3h8.1c1.7 0 3 .2 4.2.5 1.2.3 2.2.8 2.9 1.4.8.7 1.4 1.4 1.7 2.2s.5 1.9.5 3c0 .7-.2 1.5-.3 2.2-.3.7-.7 1.4-1.2 1.9s-1 1-1.9 1.5c-.7.5-1.5.7-2.4 1 2.2.3 3.9 1 5.1 2.2 1.2 1.2 1.9 2.7 1.9 4.6 0 1.2-.2 2.2-.7 3.2-.5 1-1 1.7-1.9 2.4-.8.7-1.9 1.2-3 1.5-1.2.3-2.5.5-4.1.5h-9v.2zm2-14.9h6.1c1.4 0 2.4-.2 3.4-.5.8-.3 1.7-.8 2.2-1.4s1-1.2 1.4-1.9c.3-.7.3-1.4.3-2.2 0-1.9-.7-3.4-1.9-4.4-1.2-1-3-1.5-5.6-1.5h-6.1v11.9h.2zm0 1.3V488h7.1c2.5 0 4.4-.5 5.6-1.5 1.2-1 1.9-2.5 1.9-4.6 0-.8-.2-1.7-.5-2.4s-.8-1.4-1.5-1.9-1.4-.8-2.4-1.2c-.8-.3-2-.3-3.2-.3h-7zM539.2 489.7h-1.5c-.2 0-.3 0-.5-.2l-.3-.3-3.4-8.1h-13.7l-3.4 8.1c0 .2-.2.3-.3.3-.2.2-.3.2-.5.2H514l11.5-28.3h2l11.7 28.3zm-18.9-10.2H533l-5.8-14.2c-.2-.2-.2-.5-.3-.8-.2-.3-.2-.5-.3-.8-.2.3-.2.7-.3.8-.2.3-.2.5-.3.8l-5.7 14.2zM545 461.6c.2 0 .2.2.3.3l18.3 24.5v-24.9h1.9v28.3h-1c-.3 0-.5-.2-.7-.3L545.3 465v24.9h-1.7v-28.4h1c.2-.1.4.1.4.1zM576.3 474.4h2.4c.2 0 .3 0 .5-.2.2 0 .3-.2.5-.2.2-.2.3-.2.3-.3l11.3-11.7.5-.5c.2-.2.3-.2.7-.2h1.7L581.8 474l-.7.7c-.2.2-.3.3-.7.3.3 0 .5.2.7.3s.5.3.7.7l13 13.5h-1.7c-.3 0-.7 0-.7-.2-.2-.2-.3-.2-.5-.3L580 477l-.3-.3c-.2-.2-.3-.2-.3-.3-.2 0-.3-.2-.5-.2h-2.7v13.5h-2v-28.3h2v13h.1z"/></g><path fill="#C41230" d="M14.7 411.1c0-1.5 1-2.7 2.4-3h.4c.8-.2 4.1-1.4 5.1-6.3 1.2-5.4 1-17.4-5.9-25.9l-.3-.3c0-.2-.2-.2-.2-.3-.5-.5-1.2-1.4-2-1.7-1.7-1-3.7-.8-4.6.3-.8 1.2 0 3.2 1.7 4.2.8.5 1.9.7 2.7.7-1.5 1.2-3.7 1.7-5.9 1-3.4-1-5.2-4.4-4.4-7.4 1-3 4.4-4.7 7.8-3.7.7.2 1.4.5 2 1 .5.3.8.7 1.2 1 4.1 4.1 16.1 19 6.1 41.6-.5 1.2-1.7 1.9-2.9 1.9-1.8.1-3.2-1.4-3.2-3.1m52.2 72.1c-1.9 3.4-5.4 5.1-8 3.6-1.9-1-2.7-3.2-2.5-5.8h.2c1.7.5 3.2 0 3.6-1 .3-1-.7-2-2-2.5H58c-.2 0-.3-.2-.3-.2-37.9-11.2-44.9-24.9-44.9-24.9-9-13 3-32.2 3-32.2.8-1.4 2.4-2.4 4.4-2.4 2.7 0 4.9 1.9 4.9 4.1 0 1.7-1.2 3-2.7 3.7.5-1.4.3-2.9-.7-3.2s-2.2.3-2.9 1.7c0 0-.3.5-.7 1.5-1.5 3.6-4.7 12.4-3 18.1 3 16.9 44.4 29 49.3 30.3.2 0 .3 0 .3.2h.2c.2 0 .3.2.7.3 2.3 1.5 3 5.4 1.3 8.7m67-72.1c0 1.7-1.4 3.2-3.2 3.2-1.4 0-2.4-.8-2.9-1.9-10-22.7 2-37.6 6.1-41.6.3-.3.7-.8 1.2-1 .5-.5 1.2-.8 2-1 3.4-1 6.8.7 7.8 3.7s-1 6.4-4.4 7.4c-2.2.7-4.4.2-5.9-1 .8.2 1.9-.2 2.7-.7 1.7-1 2.5-2.9 1.7-4.2-.8-1.4-2.9-1.5-4.6-.3-.8.3-1.5 1.2-2 1.7 0 .2-.2.2-.2.3l-.3.3c-6.9 8.5-7.1 20.5-5.9 25.9 1 4.9 4.1 6.1 5.1 6.3h.4c1.4.2 2.4 1.4 2.4 2.9m-52.1 72.1c-1.9-3.4-1-7.3 1.5-8.6.2-.2.3-.2.7-.3h.2c.2 0 .3 0 .3-.2 4.9-1.4 46.2-13.4 49.3-30.3 1.7-5.8-1.7-14.6-3-18.1-.3-1-.7-1.5-.7-1.5-.7-1.4-1.9-2.2-2.9-1.7-1 .3-1.4 1.9-.7 3.2-1.7-.7-2.7-2-2.7-3.7 0-2.2 2.2-4.1 4.9-4.1 1.9 0 3.6 1 4.4 2.4 0 0 12 19.1 3 32.2 0 0-6.9 13.7-44.5 24.9-.2 0-.3.2-.3.2h-.2c-1.5.5-2.4 1.7-2 2.5.3 1 1.9 1.5 3.6 1h.2c.3 2.4-.7 4.7-2.5 5.8-3.2 1.4-6.8-.3-8.6-3.7m-7.5 2.1s-3.9.2-5.9.8c0 0 8-9.8-3.7-15.1 0 0-52-14.6-46.6-33.7 0 0 .8-4.4 2.4-8.5 0 0 7.6.8 8.3-6.4 0 0 .5-5.4-5.9-7.3 0 0 12-22.7-6.6-48.1 0 0 29.8-11.9 58.2-11.9 28.4 0 58.2 11.9 58.2 11.9-18.6 25.4-6.6 48.1-6.6 48.1-6.4 1.9-5.9 7.3-5.9 7.3.5 7.4 8.3 6.4 8.3 6.4 1.5 4.1 2.4 8.5 2.4 8.5 5.2 19.1-46.6 33.7-46.6 33.7-11.7 5.2-3.7 15.1-3.7 15.1-2.4-.6-6.3-.8-6.3-.8zm0 1.5c2.7 0 7.6 1.7 7.6 1.7 3.6 2.2 7.3 1 7.3 1 6.8-1.2 4.4-8.8 4.4-8.8 37.1-13.5 43.2-23.7 43.2-23.7 14.2-19.8-3.7-40-3.7-40 5.4-1.7 4.9-5.8 4.9-5.8-.3-5.2-4.7-5.1-4.7-5.1-3.6-.5-4.2-2.7-4.2-2.7-4.4-7.3 2.9-22.7 2.9-22.7 6.4 3.9 10.5 1.7 10.5 1.7 9.1-4.6 5.8-12 5.8-12-4.1-7.8-12.7-4.9-12.7-4.9s-29.8-13.7-61.1-13.7-61.1 13.7-61.1 13.7-8.6-2.9-12.5 4.7c0 0-3.4 7.4 5.8 12 0 0 4.2 2.4 10.5-1.7 0 0 7.3 15.4 2.9 22.7 0 0-.7 2.2-4.2 2.7 0 0-4.6-.2-4.7 5.1 0 0-.5 4.1 4.9 5.8 0 0-17.9 20-3.7 40 0 0 6.3 10.3 43.2 23.7 0 0-2.4 7.6 4.4 8.8 0 0 3.7 1 7.3-1-.6 0 4.3-1.5 7-1.5z"/><path fill="#C41230" d="M82.5 468.2l.2-.2H83c.2 0 11.9-3.4 23.2-8.8 6.6-3 11.7-6.3 15.4-9.5 2.5-2.2 4.4-4.4 5.2-6.4H80.9l-2.5 1.5V466c0 1.5-1.2 2.7-2.7 2.7h-2.2c-1.5 0-2.7-1.2-2.7-2.7v-.3h-4.6c-1.5 0-2.7-1.2-2.7-2.7v-8.5c0-1.5 1.2-2.7 2.7-2.7h4.6v-6.9l-2.4-1.5H21.8c.8 2 2.5 4.2 5.2 6.4 3.6 3.2 8.8 6.3 15.4 9.5 11.3 5.4 23.2 8.8 23.2 8.8h.8c4.4 2 7.1 4.9 8 8.6 0 .2.2.5.2.7 0-.2 0-.5.2-.7.5-3.6 3.3-6.5 7.7-8.5m-39.2-38.3l-3.7 1.5s-.2 0-.2.2v3s0 .2.2.2h34.2l-5.4 3.2h-1.2s-.2 0-.2.2v2s0 .2.2.2h1.2l5.1 2.9v10.8h-7.1s-.2 0-.2.2v3.4s0 .2.2.2h2.2s.2 0 .2-.2v-1.5h2.7v1.5s0 .2.2.2h1.9v1.5h-1.9c-.2 0-.2 0-.2.2v1.4h-2.7v-1.4s0-.2-.2-.2h-2.2s-.2 0-.2.2v3.4s0 .2.2.2h7.1v2.9s0 .2.2.2h2.2s.2 0 .2-.2v-22.9l5.1-2.9h1.2c.2 0 .2 0 .2-.2v-2s0-.2-.2-.2h-1.2l-5.4-3.2H110c.2 0 .2 0 .2-.2v-3s0-.2-.2-.2l-3.9-1.5v-21.7l4.4-3.9v-4.6h-4.6v3.2h-2.4v-3.2h-1.4V385h1.7c.2 0 .2 0 .2-.2V380c0-.2 0-.2-.2-.2h-2.9c-.2 0-.2 0-.2.2v2.4h-2.5V380c0-.2 0-.2-.2-.2h-4.9c-.2 0-.2 0-.2.2v2.4h-2.5V380c0-.2 0-.2-.2-.2h-2.9c-.2 0-.2 0-.2.2v4.9c0 .2 0 .2.2.2h1.9v14.6h-1.5v3.2H85v-3.2h-1.5v-22.2h3.7c.2 0 .2 0 .2-.2v-4.9s0-.2-.2-.2h-2.9c-.2 0-.2 0-.2.2v2.4h-2.5v-2.4s0-.2-.2-.2h-4.9c-.2 0-.2 0-.2.2v2.4h-3.6v-2.4c0-.2 0-.2-.2-.2h-4.9c-.2 0-.2 0-.2.2v2.4H65v-2.4s0-.2-.2-.2H62c-.2 0-.2 0-.2.2v4.9s0 .2.2.2h3.9v22.2h-1.5v3.2h-2.7v-3.2h-1.5v-14.6h1.7c.2 0 .2 0 .2-.2V380c0-.2 0-.2-.2-.2H59c-.2 0-.2 0-.2.2v2.4h-2.5V380c0-.2 0-.2-.2-.2h-4.9c-.2 0-.2 0-.2.2v2.4h-2.5V380c0-.2 0-.2-.2-.2h-2.9c-.2 0-.2 0-.2.2v4.9c0 .2 0 .2.2.2h1.9v14.6h-1.5v3.2h-2.4v-3.2h-4.6v4.6l4.6 4.1v21.5zm49-36.2c0-1.5 1.5-2.9 3.4-2.9s3.4 1.4 3.4 2.9v9.1h-6.6v-9.1h-.2zm-1 27.9c0-2.9 1.9-4.7 4.6-4.7 2.7 0 4.6 1.9 4.6 4.7v7.8h-9.1v-7.8zm-13.1 17.5l-3.6 2-3.6-2 3.6-2 3.6 2zm-.3-59.1c0-.8.7-1.5 1.5-1.5s1.5.7 1.5 1.5v6.1h-3V380zm-4.6 0c0-.8.7-1.5 1.5-1.5s1.5.7 1.5 1.5v6.1h-3V380zm1.2 7.8c2.4 0 4.2 1.7 4.2 3.7v11.3h-8.3v-11.3c0-2 1.9-3.7 4.1-3.7m-5.9-7.8c0-.8.7-1.5 1.5-1.5s1.5.7 1.5 1.5v6.1h-3V380zm-.4 39.9c.2 0 .2 0 0 0 0-3 3-5.6 6.4-5.6 3.6 0 6.4 2.5 6.4 5.6v9.5H68.2v-9.5zm-17.9-26.2c0-1.5 1.5-2.9 3.4-2.9s3.4 1.4 3.4 2.9v9.1h-6.6v-9.1h-.2zm-1.2 27.9c0-2.9 1.9-4.7 4.6-4.7 2.7 0 4.6 1.9 4.6 4.7v7.8h-9.1v-7.8z"/></svg>